<svg xmlns="http://www.w3.org/2000/svg" viewBox="0 8 250 104" width="250" height="104" fill="none" stroke-linecap="round" stroke-linejoin="round">
  <title>WMC Tech</title>
  <path d="M85.7 31.7 A44 44 0 1 0 85.7 88.3" stroke="#8fc3f0" stroke-width="6"/>
  <path d="M30 44 L41 76 L52 56 L63 76 L74 44" stroke="#d6e8f8" stroke-width="6"/>
  <circle cx="85.7" cy="31.7" r="6.5" fill="#d6e8f8" stroke="none"/>
  <g transform="translate(122,29) scale(0.6)" stroke="#d6e8f8" stroke-width="9">
    <path d="M0 0 L17 60 L34 20 L51 60 L68 0"/>
    <path d="M82 60 L82 0 L106 40 L130 0 L130 60"/>
    <path d="M198 12 A30 30 0 1 0 198 48"/>
  </g>
  <g transform="translate(122,76) scale(0.52)" stroke="#8fc3f0" stroke-width="5.5">
    <path d="M0 0 H24 M12 0 V30"/>
    <path d="M58 0 H34 V30 H58 M34 15 H52"/>
    <path d="M95 6 A15 15 0 1 0 95 24"/>
    <path d="M108 0 V30 M132 0 V30 M108 15 H132"/>
  </g>
  <path d="M199 84 H241" stroke="#4a8fd4" stroke-width="1.5"/>
</svg>
